<svg xmlns="http://www.w3.org/2000/svg" viewBox="0 0 1200 741.72"><defs><style>.a{fill:#ff5f00;}.b{fill:#eb001b;}.c{fill:#f79e1b;}</style></defs><path class="a" d="M762.25,662.41H437.77V79.28H762.25Z"/><path class="b" d="M458.36,370.86c0-118.29,55.38-223.66,141.63-291.57A369.23,369.23,0,0,0,370.81,0C166,0,0,166,0,370.86S166,741.72,370.81,741.72A369.23,369.23,0,0,0,600,662.42c-86.25-67.9-141.63-173.27-141.63-291.57"/><path class="c" d="M1200,370.86c0,204.82-166,370.86-370.81,370.86A369.35,369.35,0,0,1,600,662.42c86.27-67.9,141.66-173.27,141.66-291.57S686.26,147.2,600,79.29A369.35,369.35,0,0,1,829.19,0C1034,0,1200,166,1200,370.86"/></svg>
