<svg xmlns="http://www.w3.org/2000/svg" viewBox="0 0 921.6 593.92"><path d="M30.41,55.6c25,13.47,371.15,199.38,384,206.29S444,272.13,460.8,272.13s33.53-3.33,46.39-10.29S866.2,69,891.19,55.55,939.88,0,894,0H27.7C-18.23,0,5.38,42.14,30.41,55.6ZM901.79,158c-28.42,14.85-377.19,197.17-394.6,206.29s-29.54,10.29-46.39,10.29-28.93-1.18-46.34-10.29S48.23,172.8,19.87,158C-.15,147.56,0,159.8,0,169.22V544.77c0,21.5,28.62,49.15,50.79,49.15H870.86c22.22,0,50.74-27.65,50.74-49.1V169.27C921.6,159.8,921.8,147.56,901.79,158Z" fill="#fb0"/></svg>