<svg xmlns="http://www.w3.org/2000/svg" viewBox="0 0 927.52 1024"><path d="M381.07,566.05c-1.24,41.3,22.5,40.73,63.07,42.66-.38-37.42-.77-56.12-1.92-93.54C398,518,382.48,518.7,381.07,566.05Zm523,57.53c-23.51-64.93-78.37-82.85-114.2-131s-65.49-114.75-141.06-155c-46.91-25-88.47-40.5-116.43-54.29-3-1.47-6-2.76-9-4,26.44-92,86-184.18,99.1-210.93,15.11-30.79-2.24-34.14-24.08-34.14s-38.06,9.8-40.3,5,2.24-15.11,2.79-21.83S550.84,0,535.73,0c-46.47,0-73.34,7.27-91.81,7.27s-40.86,4.48-45.33,7.28-1.4,28.82-5.88,32.18S388,46.45,356,46.45s-68-12.13-68,10.06c0,44.27,27.15,92.36,50.66,129.32a632,632,0,0,1,49.17,95.62,249.54,249.54,0,0,0-30.15,17.46c-48.15,32.46-60.08,2.61-173.54,98.52C108.31,461.56,52.06,527.3,14,638.14s6.72,209.37,71.65,265.33S269.26,1024,477.49,1024s299-69,388.51-150.75,61.57-184.72,38.07-249.67ZM482.72,824.47c-.12,14.8,0,20.17-.23,35l-42.35-1.26c.65-14.65.7-20,1.24-34.62C313.19,820.73,300,773.67,306.85,713c.56-4.92.83-7.39,1.38-12.32l60.12-.13c-.32,5-.49,7.49-.83,12.49-3.11,45.78,16.38,48.27,75.65,49.38.93-39.28,1.18-58.93,1.25-98.23-84.1-6.68-128.4-12.34-121.84-96.24,7.06-90.34,45.46-104.13,117.65-108.2-.59-13.72-.91-20.56-1.59-34.28l30.61-2c1.08,13.79,1.58,20.69,2.55,34.48,61.69-1.11,105.73-1.2,118,88.31.67,4.84,1,7.26,1.65,12.09l-54.17,1.74c-.44-4.78-.68-7.18-1.12-12-5-34.41-18.94-35.24-60.76-34.4,2.18,37.66,3.08,56.5,4.49,94.19,79.05,2.52,130.76,4.3,141.35,100.83,9.75,89.72-35.68,118-138.52,115.73ZM481.56,663.8c1,39.6,1.29,59.39,1.41,99,61.75,1.14,75.86-9.32,72.91-54.05s-30.15-44.47-74.32-45Z" fill="#fb0"/></svg>