<svg xmlns="http://www.w3.org/2000/svg" viewBox="0 0 313.91 83.65"><defs><style>.a{fill:#253c80;}.b{fill:#179bd7;}</style></defs><path class="a" d="M40.49,22.87c-1.34,8.76-8,8.76-14.5,8.76H22.3l2.58-16.36a2,2,0,0,1,2-1.72h1.69c4.41,0,8.57,0,10.72,2.51,1.28,1.5,1.67,3.73,1.19,6.81M37.67,0H13.25A3.39,3.39,0,0,0,9.9,2.87L0,65.48a2,2,0,0,0,2,2.35H13.7A3.39,3.39,0,0,0,17,65l2.66-16.89a3.39,3.39,0,0,1,3.35-2.87h7.73c16.08,0,25.36-7.78,27.79-23.2,1.09-6.75,0-12-3.11-15.76C52,2.16,45.84,0,37.67,0Z"/><path class="a" d="M94.35,45.34A13,13,0,0,1,81.16,56.51c-3.4,0-6.11-1.09-7.85-3.15a9.94,9.94,0,0,1-1.84-8.22,13.09,13.09,0,0,1,13.1-11.25,9.87,9.87,0,0,1,7.8,3.18,10.12,10.12,0,0,1,2,8.27m16.3-22.76H99a2,2,0,0,0-2,1.72l-.52,3.27-.82-1.18c-2.53-3.67-8.18-4.9-13.81-4.9-12.92,0-24,9.79-26.11,23.51-1.12,6.85.47,13.4,4.36,18,3.56,4.2,8.66,5.95,14.73,5.95A22.37,22.37,0,0,0,91,62.22l-.52,3.25a2,2,0,0,0,2,2.36H103A3.39,3.39,0,0,0,106.34,65l6.32-40A2,2,0,0,0,110.65,22.59Z"/><path class="a" d="M172.92,22.59H161.17a3.4,3.4,0,0,0-2.81,1.49l-16.2,23.87L135.29,25A3.4,3.4,0,0,0,132,22.59H120.49a2,2,0,0,0-1.93,2.69l12.94,38L119.33,80.43A2,2,0,0,0,121,83.65h11.74a3.39,3.39,0,0,0,2.79-1.46l39.08-56.41a2,2,0,0,0-1.67-3.19"/><path class="b" d="M214.64,22.87c-1.33,8.76-8,8.76-14.5,8.76h-3.68L199,15.27a2,2,0,0,1,2-1.72h1.69c4.4,0,8.57,0,10.72,2.51,1.28,1.5,1.67,3.73,1.18,6.81M211.82,0H187.4a3.39,3.39,0,0,0-3.35,2.86l-9.87,62.61a2,2,0,0,0,2,2.35h12.53a2.37,2.37,0,0,0,2.34-2l2.8-17.75a3.39,3.39,0,0,1,3.35-2.87h7.73c16.09,0,25.37-7.78,27.79-23.2,1.1-6.75,0-12-3.12-15.76C226.14,2.16,220,0,211.82,0Z"/><path class="b" d="M268.5,45.34a13,13,0,0,1-13.19,11.16c-3.39,0-6.11-1.09-7.85-3.15a10,10,0,0,1-1.83-8.22,13.09,13.09,0,0,1,13.1-11.25,9.87,9.87,0,0,1,7.8,3.18,10.08,10.08,0,0,1,2,8.27m16.3-22.76H273.12a2,2,0,0,0-2,1.72l-.52,3.27-.82-1.18c-2.53-3.67-8.17-4.9-13.81-4.9-12.92,0-24,9.79-26.1,23.51-1.11,6.85.47,13.4,4.35,18,3.57,4.2,8.66,5.95,14.73,5.95a22.37,22.37,0,0,0,16.18-6.69l-.52,3.25a2,2,0,0,0,2,2.36h10.53A3.39,3.39,0,0,0,280.5,65l6.32-40A2,2,0,0,0,284.8,22.59Z"/><path class="b" d="M298.59,1.72l-10,63.75a2,2,0,0,0,2,2.35h10.08A3.39,3.39,0,0,0,304,65l9.88-62.61a2,2,0,0,0-2-2.35H300.59a2,2,0,0,0-2,1.72"/></svg>
