<svg xmlns="http://www.w3.org/2000/svg" xmlns:xlink="http://www.w3.org/1999/xlink" viewBox="0 0 500 162.82"><defs><style>.a{fill:none;}.b{clip-path:url(#a);}.c{fill:url(#b);}</style><clipPath id="a"><path class="a" d="M258.55,52.41c-.28,22.4,20,34.9,35.22,42.33,15.67,7.63,20.94,12.52,20.88,19.34-.12,10.44-12.5,15-24.09,15.22-20.22.31-32-5.46-41.32-9.82L242,153.56c9.38,4.32,26.74,8.09,44.74,8.25,42.26,0,69.91-20.86,70.06-53.21.16-41-56.78-43.32-56.39-61.67.13-5.56,5.44-11.5,17.08-13,5.76-.76,21.65-1.35,39.67,7l7.07-33A107.85,107.85,0,0,0,326.53,1c-39.78,0-67.76,21.15-68,51.41M432.16,3.84A18.34,18.34,0,0,0,415,15.25L354.66,159.39h42.23l8.4-23.22H456.9l4.88,23.22H499L466.52,3.84H432.16m5.91,42,12.19,58.41H416.87l21.19-58.41m-230.71-42L174.06,159.39H214.3L247.58,3.84H207.35m-59.53,0L105.93,109.72,89,19.69c-2-10-9.84-15.85-18.56-15.85H2L1,8.36c14.06,3.05,30,8,39.7,13.23,5.92,3.22,7.61,6,9.56,13.67L82.35,159.39h42.53L190.08,3.84H147.82"/></clipPath><linearGradient id="b" x1="-55.13" y1="477.3" x2="-54.13" y2="477.3" gradientTransform="matrix(419.71, -154.57, -154.57, -419.71, 96959.09, 191962.02)" gradientUnits="userSpaceOnUse"><stop offset="0" stop-color="#222357"/><stop offset="1" stop-color="#254aa5"/></linearGradient></defs><g class="b"><path class="c" d="M-51.15,20.21,439.53-160.5,551.15,142.61,60.48,323.32"/></g></svg>
